<svg width="1041" height="1024" viewBox="0 0 1041 1024" fill="none" xmlns="http://www.w3.org/2000/svg">
<rect x="365" width="676" height="1024" fill="#0A429D"/>
<path d="M548.015 -113.245C560.068 -83.2754 564.567 -50.8015 561.114 -18.6839C557.661 13.4337 546.362 44.2092 528.213 70.9316C510.065 97.6539 485.622 119.503 457.04 134.554C428.458 149.605 396.614 157.396 364.311 157.24L365.186 -24.5782C367.673 -24.5662 370.124 -25.1659 372.324 -26.3244C374.524 -27.4829 376.406 -29.1648 377.803 -31.2217C379.2 -33.2786 380.069 -35.6476 380.335 -38.1198C380.601 -40.592 380.255 -43.0917 379.327 -45.3986L548.015 -113.245Z" fill="#1D5BC0"/>
<path d="M631.526 1232.37C648.865 1189.26 655.336 1142.54 650.369 1096.34C645.402 1050.14 629.149 1005.87 603.041 967.428C576.934 928.988 541.774 897.558 500.659 875.907C459.543 854.256 413.734 843.049 367.267 843.273L368.526 1104.82C372.103 1104.8 375.629 1105.67 378.794 1107.33C381.959 1109 384.665 1111.42 386.675 1114.38C388.684 1117.34 389.935 1120.74 390.318 1124.3C390.7 1127.86 390.202 1131.45 388.867 1134.77L631.526 1232.37Z" fill="#1D5BC0"/>
<circle cx="1010.5" cy="1023.5" r="127.5" fill="#1D5BC0"/>
<circle cx="1021.5" cy="80.5" r="169.5" fill="#1D5BC0"/>
<g filter="url(#filter0_d_16_94)">
<path d="M541.203 573.695C603.771 590.858 618.597 586.044 629.75 602.826C634.643 610.007 636.946 618.64 636.279 627.305C635.335 635.33 631.746 642.813 626.078 648.574C604.642 669.327 545.61 643.923 511.824 616.153C504.452 610.115 484.62 593.85 488.646 582.318C490.279 577.585 495.366 575.246 498.984 573.614C515.061 566.325 531.764 571.112 541.203 573.695Z" fill="url(#paint0_linear_16_94)"/>
</g>
<g filter="url(#filter1_d_16_94)">
<path d="M734.51 152.902H721.181V240.346H734.51V152.902Z" fill="url(#paint1_linear_16_94)"/>
</g>
<g filter="url(#filter2_d_16_94)">
<path d="M773.873 231.18H681.845C675.054 231.18 669.549 236.684 669.549 243.474V276.357C669.549 283.147 675.054 288.651 681.845 288.651H773.873C780.664 288.651 786.169 283.147 786.169 276.357V243.474C786.169 236.684 780.664 231.18 773.873 231.18Z" fill="url(#paint2_linear_16_94)"/>
</g>
<g filter="url(#filter3_d_16_94)">
<path d="M690.359 258.678H765.223C787.719 258.649 809.999 263.055 830.791 271.642C851.583 280.23 870.477 292.831 886.394 308.725C902.311 324.62 914.939 343.495 923.554 364.272C932.17 385.05 936.604 407.321 936.604 429.813V479.778C936.604 505.285 926.47 529.748 908.43 547.784C890.391 565.82 865.924 575.953 840.413 575.953H615.414C589.903 575.953 565.436 565.82 547.397 547.784C529.357 529.748 519.223 505.285 519.223 479.778V429.813C519.223 384.425 537.256 340.896 569.356 308.802C601.455 276.708 644.991 258.678 690.386 258.678H690.359Z" fill="url(#paint3_linear_16_94)"/>
</g>
<path d="M870.853 470.639C865.316 473.351 859.229 474.756 853.062 474.746H602.792C596.616 474.757 590.521 473.352 584.973 470.639C578.636 467.759 573.376 462.941 569.954 456.879C566.531 450.818 565.123 443.826 565.931 436.912V435.906C572.351 389.396 614.462 353.629 666.121 350.964C687.884 349.822 710.898 349.223 734.81 349.359C753.553 349.359 771.67 350.039 789.216 350.937C841.066 353.657 883.503 389.205 889.869 435.906L890.005 436.912C890.796 443.837 889.367 450.835 885.926 456.896C882.484 462.957 877.206 467.769 870.853 470.639Z" fill="url(#paint4_linear_16_94)"/>
<path style="mix-blend-mode:screen" d="M661.85 464.519C687.932 464.519 709.075 443.379 709.075 417.302C709.075 391.225 687.932 370.085 661.85 370.085C635.768 370.085 614.625 391.225 614.625 417.302C614.625 443.379 635.768 464.519 661.85 464.519Z" fill="url(#paint5_radial_16_94)"/>
<path d="M661.85 451.192C680.57 451.192 695.745 436.019 695.745 417.302C695.745 398.585 680.57 383.412 661.85 383.412C643.13 383.412 627.955 398.585 627.955 417.302C627.955 436.019 643.13 451.192 661.85 451.192Z" fill="#EEFDFF"/>
<path d="M661.85 445.752C677.565 445.752 690.305 433.014 690.305 417.302C690.305 401.589 677.565 388.852 661.85 388.852C646.135 388.852 633.395 401.589 633.395 417.302C633.395 433.014 646.135 445.752 661.85 445.752Z" fill="url(#paint6_linear_16_94)"/>
<path d="M680.104 409.931C680.104 412.018 679.485 414.059 678.325 415.794C677.165 417.53 675.517 418.882 673.588 419.681C671.659 420.48 669.537 420.689 667.49 420.281C665.442 419.874 663.561 418.869 662.085 417.393C660.609 415.917 659.604 414.037 659.197 411.99C658.789 409.943 658.998 407.821 659.797 405.893C660.596 403.964 661.949 402.316 663.685 401.156C665.42 399.997 667.461 399.378 669.549 399.378C672.348 399.378 675.033 400.49 677.012 402.469C678.992 404.448 680.104 407.132 680.104 409.931Z" fill="#EEFDFF"/>
<path d="M657.634 443.358C659.962 443.358 661.85 441.471 661.85 439.143C661.85 436.814 659.962 434.927 657.634 434.927C655.305 434.927 653.417 436.814 653.417 439.143C653.417 441.471 655.305 443.358 657.634 443.358Z" fill="#EEFDFF"/>
<path d="M647.215 432.805C647.22 433.227 647.1 433.641 646.869 433.994C646.637 434.347 646.306 434.623 645.918 434.787C645.529 434.951 645.1 434.996 644.686 434.915C644.272 434.834 643.891 434.631 643.593 434.333C643.294 434.034 643.092 433.654 643.011 433.24C642.93 432.826 642.974 432.397 643.138 432.008C643.302 431.619 643.578 431.288 643.931 431.057C644.284 430.826 644.698 430.706 645.12 430.711C645.673 430.718 646.202 430.941 646.593 431.332C646.985 431.724 647.208 432.252 647.215 432.805Z" fill="#EEFDFF"/>
<path style="mix-blend-mode:screen" d="M789.407 464.519C815.488 464.519 836.632 443.379 836.632 417.302C836.632 391.225 815.488 370.085 789.407 370.085C763.325 370.085 742.182 391.225 742.182 417.302C742.182 443.379 763.325 464.519 789.407 464.519Z" fill="url(#paint7_radial_16_94)"/>
<path d="M789.407 451.192C808.127 451.192 823.302 436.019 823.302 417.302C823.302 398.585 808.127 383.412 789.407 383.412C770.687 383.412 755.511 398.585 755.511 417.302C755.511 436.019 770.687 451.192 789.407 451.192Z" fill="#EEFDFF"/>
<path d="M789.407 445.752C805.122 445.752 817.861 433.014 817.861 417.302C817.861 401.589 805.122 388.852 789.407 388.852C773.692 388.852 760.952 401.589 760.952 417.302C760.952 433.014 773.692 445.752 789.407 445.752Z" fill="url(#paint8_linear_16_94)"/>
<path d="M807.66 409.931C807.66 412.018 807.041 414.059 805.881 415.794C804.722 417.53 803.073 418.882 801.144 419.681C799.216 420.48 797.093 420.689 795.046 420.281C792.999 419.874 791.118 418.869 789.642 417.393C788.166 415.917 787.16 414.037 786.753 411.99C786.346 409.943 786.555 407.821 787.354 405.893C788.153 403.964 789.505 402.316 791.241 401.156C792.977 399.997 795.018 399.378 797.105 399.378C799.905 399.378 802.589 400.49 804.569 402.469C806.548 404.448 807.66 407.132 807.66 409.931Z" fill="#EEFDFF"/>
<path d="M785.19 443.358C787.519 443.358 789.407 441.471 789.407 439.143C789.407 436.814 787.519 434.927 785.19 434.927C782.861 434.927 780.974 436.814 780.974 439.143C780.974 441.471 782.861 443.358 785.19 443.358Z" fill="#EEFDFF"/>
<path d="M774.771 432.805C774.775 433.082 774.723 433.358 774.62 433.615C774.516 433.872 774.362 434.106 774.167 434.304C773.972 434.501 773.74 434.658 773.484 434.765C773.229 434.872 772.954 434.927 772.677 434.927C772.38 434.96 772.079 434.931 771.794 434.841C771.509 434.75 771.247 434.6 771.024 434.401C770.801 434.202 770.622 433.959 770.5 433.686C770.378 433.413 770.315 433.118 770.315 432.819C770.315 432.52 770.378 432.224 770.5 431.952C770.622 431.679 770.801 431.435 771.024 431.236C771.247 431.037 771.509 430.887 771.794 430.797C772.079 430.706 772.38 430.677 772.677 430.711C773.232 430.711 773.765 430.932 774.158 431.324C774.551 431.717 774.771 432.25 774.771 432.805Z" fill="#EEFDFF"/>
<path d="M744.929 147.081C744.929 150.459 743.927 153.762 742.05 156.571C740.173 159.379 737.505 161.569 734.383 162.862C731.261 164.154 727.826 164.493 724.513 163.834C721.199 163.175 718.155 161.548 715.765 159.159C713.376 156.77 711.749 153.727 711.09 150.413C710.431 147.1 710.769 143.665 712.062 140.544C713.355 137.423 715.545 134.756 718.354 132.879C721.164 131.002 724.467 130 727.845 130C732.376 130 736.722 131.8 739.925 135.003C743.129 138.206 744.929 142.551 744.929 147.081Z" fill="url(#paint9_linear_16_94)"/>
<path d="M739.733 140.417C739.733 141.45 739.427 142.46 738.853 143.319C738.279 144.177 737.463 144.847 736.509 145.242C735.555 145.637 734.504 145.741 733.491 145.539C732.478 145.338 731.547 144.84 730.817 144.11C730.087 143.38 729.589 142.449 729.388 141.436C729.186 140.423 729.289 139.373 729.685 138.419C730.08 137.465 730.75 136.649 731.608 136.075C732.467 135.501 733.477 135.195 734.51 135.195C735.895 135.195 737.224 135.745 738.204 136.725C739.183 137.704 739.733 139.032 739.733 140.417Z" fill="white"/>
<path d="M874.88 313.402C875.097 321.372 868.596 330.891 861.278 331.707C854.287 332.469 848.71 325.343 842.943 317.972C837.176 310.601 824.88 292.106 829.804 286.829C836.196 279.866 874.335 294.689 874.88 313.402Z" fill="white"/>
<path d="M811.033 283.021C814.309 283.021 816.964 280.366 816.964 277.092C816.964 273.817 814.309 271.162 811.033 271.162C807.758 271.162 805.103 273.817 805.103 277.092C805.103 280.366 807.758 283.021 811.033 283.021Z" fill="white"/>
<path d="M873.955 423.966C872.051 425.298 858.775 398.263 823.139 374.817C810.625 366.658 798.248 360.701 798.982 358.988C799.717 357.274 813.645 360.483 824.798 365.651C860.353 382.134 876.294 422.361 873.955 423.966Z" fill="white"/>
<path d="M782.796 248.179C782.361 248.179 782.089 245.759 780.076 241.896C779.441 240.751 778.742 239.643 777.981 238.578C774.418 233.655 762.285 233.764 761.333 233.764C742.426 233.927 730.294 232.73 730.294 232.839C730.294 232.948 739.162 232.839 745.664 232.622C763.971 232.241 774.88 231.262 779.559 236.185C780.805 237.555 781.791 239.14 782.47 240.863C783.502 243.172 783.618 245.787 782.796 248.179Z" fill="white"/>
<path d="M778.743 495.009C778.481 497.212 777.466 499.257 775.87 500.799C774.274 502.34 772.195 503.283 769.983 503.468L707.416 509.506C705.215 509.74 703.001 509.211 701.145 508.008C699.288 506.804 697.9 505 697.214 502.897C696.623 500.936 696.169 498.937 695.854 496.913C695.817 496.63 695.836 496.342 695.91 496.067C695.985 495.791 696.114 495.533 696.29 495.308C696.462 495.084 696.679 494.898 696.927 494.762C697.176 494.627 697.449 494.544 697.731 494.52L776.621 486.904C776.899 486.88 777.179 486.91 777.445 486.994C777.711 487.078 777.958 487.214 778.172 487.393C778.591 487.771 778.845 488.299 778.879 488.862C778.984 490.912 778.939 492.966 778.743 495.009Z" fill="#EEFDFF"/>
<path d="M778.743 495.036C777.76 504.56 773.533 513.456 766.771 520.234C760.009 527.012 751.122 531.261 741.6 532.268C732.077 533.276 722.498 530.98 714.467 525.767C706.436 520.553 700.441 512.738 697.487 503.631C698.295 505.548 699.7 507.153 701.494 508.207C703.288 509.261 705.375 509.707 707.443 509.479L770.011 503.468C772.211 503.273 774.278 502.33 775.868 500.796C777.457 499.261 778.472 497.228 778.743 495.036Z" fill="url(#paint10_linear_16_94)"/>
<g filter="url(#filter4_d_16_94)">
<path d="M877.409 635.491C877.409 636.062 877.409 636.607 877.409 637.15C877.265 640.855 876.587 644.519 875.396 648.03C858.177 700.606 847.867 728.348 833.395 750.787C830.892 754.65 828.253 758.376 825.451 762.021C821.752 766.889 817.698 771.649 813.21 776.545C803.199 787.424 788.074 792.32 783.286 794.034C765.468 800.317 749.744 799.174 739.271 799.256H737.448C726.948 799.256 711.224 800.317 693.406 794.034C688.537 792.32 673.412 787.397 663.482 776.545C636.007 746.626 625.398 721.766 601.296 648.03C600.173 644.698 599.496 641.232 599.282 637.722C599.282 636.307 599.282 635.002 599.282 633.451C600.011 624.113 603.666 615.243 609.729 608.102C615.194 601.467 622.072 596.136 629.861 592.498C637.65 588.861 646.153 587.009 654.75 587.077L738.428 586.724L820.582 586.397C829.371 586.263 838.08 588.084 846.079 591.73C854.077 595.376 861.165 600.754 866.827 607.476C872.022 613.537 875.538 620.851 877.029 628.692C877.192 629.725 877.355 630.813 877.464 631.847C877.573 632.88 877.409 634.295 877.409 635.491Z" fill="url(#paint11_linear_16_94)"/>
</g>
<path d="M738.237 586.805L654.56 587.159C645.965 587.102 637.465 588.959 629.678 592.596C621.89 596.233 615.011 601.557 609.538 608.184C603.487 615.342 599.833 624.217 599.092 633.56C599.807 623.943 603.626 614.819 609.973 607.558C615.634 600.833 622.721 595.452 630.72 591.806C638.719 588.16 647.429 586.34 656.219 586.479L738.237 586.805Z" fill="url(#paint12_linear_16_94)"/>
<g filter="url(#filter5_d_16_94)">
<path d="M821.425 710.071C820.201 645.174 811.414 632.336 824.363 616.887C829.861 610.196 837.466 605.565 845.935 603.75C853.902 602.397 862.092 603.727 869.221 607.531C895.201 622.246 887.475 686.027 870.364 726.281C866.637 735.067 856.626 758.621 844.439 758.05C839.434 757.832 835.761 753.616 833.177 750.597C821.724 737.215 821.615 719.862 821.425 710.071Z" fill="url(#paint13_linear_16_94)"/>
</g>
<path d="M833.367 750.869C830.865 754.731 828.226 758.458 825.424 762.102C824.526 761.177 823.71 760.253 823.003 759.382C811.55 745.973 811.414 728.648 811.251 718.856C810.027 653.959 801.213 641.122 814.189 625.7C817.041 622.263 820.442 619.322 824.254 616.996C811.469 632.391 820.201 645.337 821.534 710.043C821.697 719.835 821.86 737.242 833.259 750.57C833.31 750.664 833.346 750.764 833.367 750.869Z" fill="url(#paint14_linear_16_94)"/>
<path d="M869.983 656.027C869.363 648.441 867.922 640.944 865.685 633.669C862.285 620.26 857.986 613.705 860.761 611.121C862.584 609.435 866.202 610.577 866.963 610.822C879.232 614.739 883.041 637.749 882.497 652.164C882.197 660.977 880.021 670.823 876.811 671.204C876.328 671.267 875.837 671.229 875.368 671.094C874.9 670.958 874.465 670.727 874.091 670.415C870.5 667.314 870.255 661.33 869.983 656.027Z" fill="white"/>
<path d="M878.416 680.642C878.416 681.147 878.266 681.642 877.985 682.062C877.704 682.482 877.305 682.81 876.837 683.004C876.37 683.197 875.856 683.248 875.36 683.149C874.864 683.05 874.408 682.807 874.051 682.449C873.693 682.092 873.45 681.636 873.351 681.14C873.252 680.644 873.303 680.13 873.496 679.663C873.69 679.196 874.018 678.797 874.438 678.516C874.859 678.235 875.353 678.085 875.859 678.085C876.196 678.081 876.53 678.145 876.842 678.272C877.154 678.399 877.437 678.587 877.675 678.826C877.913 679.064 878.102 679.347 878.229 679.659C878.356 679.971 878.42 680.305 878.416 680.642Z" fill="white"/>
<path style="mix-blend-mode:soft-light" d="M734.51 916.592C808.233 916.592 867.997 892.128 867.997 861.949C867.997 831.771 808.233 807.307 734.51 807.307C660.788 807.307 601.023 831.771 601.023 861.949C601.023 892.128 660.788 916.592 734.51 916.592Z" fill="url(#paint15_radial_16_94)"/>
<g filter="url(#filter6_d_16_94)">
<path d="M493.611 296.001C493.611 296.001 496.839 339.459 514.893 349.625C514.893 349.625 456.913 339.614 442.647 317.901C428.381 296.187 493.611 296.001 493.611 296.001Z" fill="url(#paint16_linear_16_94)"/>
<path d="M450.254 170.592H346.169C305.48 170.592 272.495 203.568 272.495 244.246C272.495 284.924 305.48 317.901 346.169 317.901H450.254C490.943 317.901 523.928 284.924 523.928 244.246C523.928 203.568 490.943 170.592 450.254 170.592Z" fill="url(#paint17_linear_16_94)"/>
<path d="M351.525 272.425C351.525 273.283 349.026 273.827 344.027 274.054C338.997 274.272 336.452 273.977 336.421 273.123L335.629 255.926L325.151 256.407L325.942 273.604C325.942 274.458 323.49 274.986 318.46 275.156C313.43 275.327 310.885 275.079 310.838 274.241L308.572 224.667C308.572 223.612 311.009 222.975 316.038 222.742C321.068 222.51 323.629 222.929 323.676 223.969L324.483 241.538L334.946 241.057L334.154 223.643C334.154 222.944 335.334 222.385 337.818 221.966C339.106 221.811 340.379 221.702 341.621 221.64H345.409C347.923 221.827 349.196 222.261 349.227 222.96L351.525 272.425Z" fill="url(#paint18_linear_16_94)"/>
<path d="M386.856 270.05C383.239 272.202 379.112 273.349 374.903 273.371C372.591 273.528 370.272 273.212 368.087 272.443C365.901 271.675 363.894 270.47 362.189 268.901C358.635 265.704 356.725 261.141 356.461 255.165C355.966 249.931 357.481 244.703 360.699 240.545C362.153 238.71 363.993 237.218 366.088 236.175C368.183 235.131 370.483 234.562 372.823 234.507C377.806 234.29 381.718 235.376 384.543 237.798C385.899 238.901 387.002 240.283 387.779 241.849C388.555 243.416 388.987 245.13 389.045 246.877C389.417 254.948 384.967 259.201 375.695 259.635L370.541 259.868C370.489 260.459 370.587 261.053 370.826 261.595C371.065 262.138 371.437 262.612 371.907 262.972C373.034 263.573 374.317 263.817 375.586 263.671C379.043 263.519 382.413 262.539 385.412 260.815C385.412 260.815 385.707 261.11 386.142 261.839C387.252 263.423 387.951 265.258 388.176 267.179C388.269 267.734 388.193 268.305 387.958 268.817C387.723 269.329 387.339 269.759 386.856 270.05ZM376.455 248.879C376.497 248.466 376.444 248.049 376.301 247.659C376.158 247.27 375.928 246.917 375.629 246.629C375.331 246.341 374.97 246.124 374.576 245.995C374.181 245.866 373.762 245.828 373.351 245.884C372.462 245.896 371.609 246.239 370.96 246.846C370.629 247.178 370.377 247.582 370.224 248.025C370.07 248.469 370.02 248.941 370.075 249.407L370.184 251.72L374.22 251.534C374.553 251.542 374.884 251.476 375.188 251.339C375.493 251.203 375.762 250.999 375.977 250.744C376.191 250.49 376.346 250.189 376.429 249.867C376.512 249.544 376.521 249.206 376.455 248.879Z" fill="url(#paint19_linear_16_94)"/>
<path d="M408.604 270.485C408.604 270.929 406.074 271.271 401.013 271.509C397.029 271.633 395.027 271.524 395.006 271.183L392.662 220.259C392.662 219.514 395.037 219.033 399.865 218.8C404.103 218.8 406.245 218.909 406.26 219.266L408.604 270.485Z" fill="url(#paint20_linear_16_94)"/>
<path d="M428.956 269.537C428.956 269.988 426.441 270.329 421.349 270.562C417.36 270.701 415.357 270.562 415.341 270.251L412.997 219.327C412.997 218.582 415.373 218.101 420.2 217.868C424.454 217.868 426.58 217.977 426.596 218.334L428.956 269.537Z" fill="url(#paint21_linear_16_94)"/>
<path d="M438.751 265.269C435.491 261.979 433.716 257.292 433.426 251.207C433.137 245.123 434.477 240.291 437.447 236.711C440.646 233.248 445.08 231.184 449.79 230.966C454.499 230.748 459.105 232.394 462.61 235.547C465.85 238.848 467.614 243.54 467.904 249.624C468.194 255.708 466.864 260.541 463.914 264.121C460.711 267.578 456.276 269.636 451.568 269.851C446.86 270.066 442.256 268.42 438.751 265.269ZM450.424 243.463C447.599 243.587 446.295 245.941 446.513 250.525C446.73 255.181 448.236 257.338 451.045 257.214C453.855 257.09 455.175 254.731 454.957 250.136C454.74 245.542 453.234 243.323 450.424 243.463Z" fill="url(#paint22_linear_16_94)"/>
<path d="M473.554 256.857C473.554 256.505 475.852 256.226 480.447 256.019C485.104 255.802 487.37 255.848 487.386 256.143L487.882 266.914C487.882 267.411 485.6 267.768 480.99 267.97C476.38 268.172 474.067 268.141 474.051 267.846L473.554 256.857ZM485.678 251.797C485.678 252.108 483.924 252.325 480.354 252.496C476.783 252.666 475.014 252.62 474.998 252.371L471.8 215.571C471.8 215.183 474.051 214.873 478.615 214.656C483.179 214.438 485.476 214.532 485.492 214.873L485.678 251.797Z" fill="url(#paint23_linear_16_94)"/>
<path d="M483.784 244.627C483.784 244.627 480.835 217.931 482.31 217.217C483.784 216.503 484.467 231.093 483.784 244.627Z" fill="white"/>
<path d="M486.672 258.145C486.672 258.452 486.581 258.752 486.41 259.007C486.24 259.263 485.997 259.462 485.713 259.579C485.43 259.697 485.118 259.727 484.817 259.667C484.515 259.607 484.239 259.46 484.022 259.243C483.805 259.026 483.657 258.749 483.597 258.448C483.537 258.147 483.568 257.835 483.685 257.551C483.803 257.268 484.002 257.025 484.257 256.855C484.512 256.684 484.812 256.593 485.119 256.593C485.531 256.593 485.926 256.757 486.217 257.048C486.508 257.339 486.672 257.733 486.672 258.145Z" fill="white"/>
</g>
<path d="M209.078 299.395C212.811 303.552 217.922 306.218 223.468 306.902C223.604 306.602 214.273 305.351 209.377 297.872C207.092 294.363 204.807 288.026 203.283 288.026H203.12C202.358 288.624 205.324 295.233 209.078 299.395Z" fill="white"/>
<defs>
<filter id="filter0_d_16_94" x="484.113" y="569.749" width="156.279" height="94.4236" filterUnits="userSpaceOnUse" color-interpolation-filters="sRGB">
<feFlood flood-opacity="0" result="BackgroundImageFix"/>
<feColorMatrix in="SourceAlpha" type="matrix" values="0 0 0 0 0 0 0 0 0 0 0 0 0 0 0 0 0 0 127 0" result="hardAlpha"/>
<feOffset dy="4"/>
<feGaussianBlur stdDeviation="2"/>
<feComposite in2="hardAlpha" operator="out"/>
<feColorMatrix type="matrix" values="0 0 0 0 0 0 0 0 0 0 0 0 0 0 0 0 0 0 0.25 0"/>
<feBlend mode="normal" in2="BackgroundImageFix" result="effect1_dropShadow_16_94"/>
<feBlend mode="normal" in="SourceGraphic" in2="effect1_dropShadow_16_94" result="shape"/>
</filter>
<filter id="filter1_d_16_94" x="717.181" y="152.902" width="21.3297" height="95.4443" filterUnits="userSpaceOnUse" color-interpolation-filters="sRGB">
<feFlood flood-opacity="0" result="BackgroundImageFix"/>
<feColorMatrix in="SourceAlpha" type="matrix" values="0 0 0 0 0 0 0 0 0 0 0 0 0 0 0 0 0 0 127 0" result="hardAlpha"/>
<feOffset dy="4"/>
<feGaussianBlur stdDeviation="2"/>
<feComposite in2="hardAlpha" operator="out"/>
<feColorMatrix type="matrix" values="0 0 0 0 0 0 0 0 0 0 0 0 0 0 0 0 0 0 0.25 0"/>
<feBlend mode="normal" in2="BackgroundImageFix" result="effect1_dropShadow_16_94"/>
<feBlend mode="normal" in="SourceGraphic" in2="effect1_dropShadow_16_94" result="shape"/>
</filter>
<filter id="filter2_d_16_94" x="665.549" y="231.18" width="124.621" height="65.4712" filterUnits="userSpaceOnUse" color-interpolation-filters="sRGB">
<feFlood flood-opacity="0" result="BackgroundImageFix"/>
<feColorMatrix in="SourceAlpha" type="matrix" values="0 0 0 0 0 0 0 0 0 0 0 0 0 0 0 0 0 0 127 0" result="hardAlpha"/>
<feOffset dy="4"/>
<feGaussianBlur stdDeviation="2"/>
<feComposite in2="hardAlpha" operator="out"/>
<feColorMatrix type="matrix" values="0 0 0 0 0 0 0 0 0 0 0 0 0 0 0 0 0 0 0.25 0"/>
<feBlend mode="normal" in2="BackgroundImageFix" result="effect1_dropShadow_16_94"/>
<feBlend mode="normal" in="SourceGraphic" in2="effect1_dropShadow_16_94" result="shape"/>
</filter>
<filter id="filter3_d_16_94" x="515.223" y="258.678" width="425.381" height="325.275" filterUnits="userSpaceOnUse" color-interpolation-filters="sRGB">
<feFlood flood-opacity="0" result="BackgroundImageFix"/>
<feColorMatrix in="SourceAlpha" type="matrix" values="0 0 0 0 0 0 0 0 0 0 0 0 0 0 0 0 0 0 127 0" result="hardAlpha"/>
<feOffset dy="4"/>
<feGaussianBlur stdDeviation="2"/>
<feComposite in2="hardAlpha" operator="out"/>
<feColorMatrix type="matrix" values="0 0 0 0 0 0 0 0 0 0 0 0 0 0 0 0 0 0 0.25 0"/>
<feBlend mode="normal" in2="BackgroundImageFix" result="effect1_dropShadow_16_94"/>
<feBlend mode="normal" in="SourceGraphic" in2="effect1_dropShadow_16_94" result="shape"/>
</filter>
<filter id="filter4_d_16_94" x="595.282" y="586.39" width="286.219" height="220.933" filterUnits="userSpaceOnUse" color-interpolation-filters="sRGB">
<feFlood flood-opacity="0" result="BackgroundImageFix"/>
<feColorMatrix in="SourceAlpha" type="matrix" values="0 0 0 0 0 0 0 0 0 0 0 0 0 0 0 0 0 0 127 0" result="hardAlpha"/>
<feOffset dy="4"/>
<feGaussianBlur stdDeviation="2"/>
<feComposite in2="hardAlpha" operator="out"/>
<feColorMatrix type="matrix" values="0 0 0 0 0 0 0 0 0 0 0 0 0 0 0 0 0 0 0.25 0"/>
<feBlend mode="normal" in2="BackgroundImageFix" result="effect1_dropShadow_16_94"/>
<feBlend mode="normal" in="SourceGraphic" in2="effect1_dropShadow_16_94" result="shape"/>
</filter>
<filter id="filter5_d_16_94" x="813.378" y="603.235" width="76.6666" height="162.825" filterUnits="userSpaceOnUse" color-interpolation-filters="sRGB">
<feFlood flood-opacity="0" result="BackgroundImageFix"/>
<feColorMatrix in="SourceAlpha" type="matrix" values="0 0 0 0 0 0 0 0 0 0 0 0 0 0 0 0 0 0 127 0" result="hardAlpha"/>
<feOffset dy="4"/>
<feGaussianBlur stdDeviation="2"/>
<feComposite in2="hardAlpha" operator="out"/>
<feColorMatrix type="matrix" values="0 0 0 0 0 0 0 0 0 0 0 0 0 0 0 0 0 0 0.25 0"/>
<feBlend mode="normal" in2="BackgroundImageFix" result="effect1_dropShadow_16_94"/>
<feBlend mode="normal" in="SourceGraphic" in2="effect1_dropShadow_16_94" result="shape"/>
</filter>
<filter id="filter6_d_16_94" x="268.495" y="169.592" width="259.433" height="187.033" filterUnits="userSpaceOnUse" color-interpolation-filters="sRGB">
<feFlood flood-opacity="0" result="BackgroundImageFix"/>
<feColorMatrix in="SourceAlpha" type="matrix" values="0 0 0 0 0 0 0 0 0 0 0 0 0 0 0 0 0 0 127 0" result="hardAlpha"/>
<feOffset dy="3"/>
<feGaussianBlur stdDeviation="2"/>
<feComposite in2="hardAlpha" operator="out"/>
<feColorMatrix type="matrix" values="0 0 0 0 0 0 0 0 0 0 0 0 0 0 0 0 0 0 0.25 0"/>
<feBlend mode="normal" in2="BackgroundImageFix" result="effect1_dropShadow_16_94"/>
<feBlend mode="normal" in="SourceGraphic" in2="effect1_dropShadow_16_94" result="shape"/>
</filter>
<linearGradient id="paint0_linear_16_94" x1="576.773" y1="613.111" x2="819.513" y2="801.83" gradientUnits="userSpaceOnUse">
<stop offset="0.04" stop-color="#06BED8"/>
<stop offset="1" stop-color="#3B82F6"/>
</linearGradient>
<linearGradient id="paint1_linear_16_94" x1="700.697" y1="200.581" x2="740.658" y2="194.759" gradientUnits="userSpaceOnUse">
<stop offset="0.04" stop-color="#06CFF1"/>
<stop offset="1" stop-color="#3B82F6"/>
</linearGradient>
<linearGradient id="paint2_linear_16_94" x1="690.495" y1="302.087" x2="761.428" y2="221.975" gradientUnits="userSpaceOnUse">
<stop offset="0.04" stop-color="#06CFF1"/>
<stop offset="1" stop-color="#3B82F6"/>
</linearGradient>
<linearGradient id="paint3_linear_16_94" x1="587.721" y1="579.516" x2="868.822" y2="298.369" gradientUnits="userSpaceOnUse">
<stop offset="0.04" stop-color="#06CFF1"/>
<stop offset="1" stop-color="#3B82F6"/>
</linearGradient>
<linearGradient id="paint4_linear_16_94" x1="727.111" y1="474.365" x2="729.613" y2="361.925" gradientUnits="userSpaceOnUse">
<stop stop-color="#030D14"/>
<stop offset="1" stop-color="#0B2F45"/>
</linearGradient>
<radialGradient id="paint5_radial_16_94" cx="0" cy="0" r="1" gradientUnits="userSpaceOnUse" gradientTransform="translate(661.85 417.302) scale(46.7354 46.7277)">
<stop offset="0.13" stop-color="#3280FC"/>
<stop offset="1"/>
</radialGradient>
<linearGradient id="paint6_linear_16_94" x1="633.368" y1="417.302" x2="690.305" y2="417.302" gradientUnits="userSpaceOnUse">
<stop stop-color="#030D14"/>
<stop offset="1" stop-color="#0B2F45"/>
</linearGradient>
<radialGradient id="paint7_radial_16_94" cx="0" cy="0" r="1" gradientUnits="userSpaceOnUse" gradientTransform="translate(789.407 417.302) scale(46.7354 46.7277)">
<stop offset="0.13" stop-color="#3280FC"/>
<stop offset="1"/>
</radialGradient>
<linearGradient id="paint8_linear_16_94" x1="760.952" y1="417.302" x2="817.889" y2="417.302" gradientUnits="userSpaceOnUse">
<stop stop-color="#030D14"/>
<stop offset="1" stop-color="#0B2F45"/>
</linearGradient>
<linearGradient id="paint9_linear_16_94" x1="691.91" y1="152.303" x2="744.82" y2="144.603" gradientUnits="userSpaceOnUse">
<stop offset="0.04" stop-color="#06CFF1"/>
<stop offset="1" stop-color="#3B82F6"/>
</linearGradient>
<linearGradient id="paint10_linear_16_94" x1="726.132" y1="518.019" x2="807.538" y2="436.627" gradientUnits="userSpaceOnUse">
<stop offset="0.110577" stop-color="#3B82F6"/>
<stop offset="0.740385" stop-color="#06CFF1"/>
</linearGradient>
<linearGradient id="paint11_linear_16_94" x1="649.255" y1="764.985" x2="864.882" y2="513.143" gradientUnits="userSpaceOnUse">
<stop offset="0.04" stop-color="#06CFF1"/>
<stop offset="0.721154" stop-color="#3B82F6"/>
</linearGradient>
<linearGradient id="paint12_linear_16_94" x1="637.83" y1="639.462" x2="767.511" y2="488.025" gradientUnits="userSpaceOnUse">
<stop offset="0.04" stop-color="#06CFF1"/>
<stop offset="1" stop-color="#DEFA8E"/>
</linearGradient>
<linearGradient id="paint13_linear_16_94" x1="915.532" y1="729.272" x2="753.801" y2="611.118" gradientUnits="userSpaceOnUse">
<stop offset="0.04" stop-color="#06CFF1"/>
<stop offset="0.07" stop-color="#0FD1ED"/>
<stop offset="0.42" stop-color="#76EBFF"/>
<stop offset="0.69" stop-color="#3DE2FE"/>
<stop offset="0.9" stop-color="#06CFF1"/>
<stop offset="1" stop-color="#3B82F6"/>
</linearGradient>
<linearGradient id="paint14_linear_16_94" x1="774.2" y1="715.946" x2="888.637" y2="656.311" gradientUnits="userSpaceOnUse">
<stop offset="0.04" stop-color="#06BED8"/>
<stop offset="1" stop-color="#3B82F6"/>
</linearGradient>
<radialGradient id="paint15_radial_16_94" cx="0" cy="0" r="1" gradientUnits="userSpaceOnUse" gradientTransform="translate(733.04 858.924) scale(133.228 54.0739)">
<stop stop-color="#BCD7D6"/>
<stop offset="1" stop-color="white"/>
</radialGradient>
<linearGradient id="paint16_linear_16_94" x1="463.324" y1="292.415" x2="483.282" y2="346.601" gradientUnits="userSpaceOnUse">
<stop offset="0.9999" stop-color="#D2F3FF"/>
<stop offset="1" stop-color="#DFEDFF"/>
</linearGradient>
<linearGradient id="paint17_linear_16_94" x1="272.495" y1="244.254" x2="523.928" y2="244.254" gradientUnits="userSpaceOnUse">
<stop stop-color="#C7F7FF"/>
<stop offset="0.51" stop-color="#E0ECFF"/>
</linearGradient>
<linearGradient id="paint18_linear_16_94" x1="312.15" y1="253.145" x2="512.908" y2="200.777" gradientUnits="userSpaceOnUse">
<stop offset="0.04" stop-color="#06CFF1"/>
<stop offset="1" stop-color="#3B82F6"/>
</linearGradient>
<linearGradient id="paint19_linear_16_94" x1="316.303" y1="269.128" x2="517.076" y2="216.76" gradientUnits="userSpaceOnUse">
<stop offset="0.04" stop-color="#06CFF1"/>
<stop offset="1" stop-color="#3B82F6"/>
</linearGradient>
<linearGradient id="paint20_linear_16_94" x1="315.849" y1="267.362" x2="516.622" y2="214.994" gradientUnits="userSpaceOnUse">
<stop offset="0.04" stop-color="#06CFF1"/>
<stop offset="1" stop-color="#3B82F6"/>
</linearGradient>
<linearGradient id="paint21_linear_16_94" x1="316.922" y1="271.446" x2="517.68" y2="219.078" gradientUnits="userSpaceOnUse">
<stop offset="0.04" stop-color="#06CFF1"/>
<stop offset="1" stop-color="#3B82F6"/>
</linearGradient>
<linearGradient id="paint22_linear_16_94" x1="320.3" y1="284.435" x2="521.074" y2="232.067" gradientUnits="userSpaceOnUse">
<stop offset="0.04" stop-color="#06CFF1"/>
<stop offset="1" stop-color="#3B82F6"/>
</linearGradient>
<linearGradient id="paint23_linear_16_94" x1="319.94" y1="283.007" x2="520.697" y2="230.639" gradientUnits="userSpaceOnUse">
<stop offset="0.04" stop-color="#06CFF1"/>
<stop offset="1" stop-color="#3B82F6"/>
</linearGradient>
</defs>
</svg>
